<?xml version="1.0" encoding="utf-8"?>
<!-- Generator: Adobe Illustrator 16.0.4, SVG Export Plug-In . SVG Version: 6.00 Build 0)  -->
<!DOCTYPE svg PUBLIC "-//W3C//DTD SVG 1.1//EN" "http://www.w3.org/Graphics/SVG/1.1/DTD/svg11.dtd">
<svg version="1.1" id="Layer_1" xmlns="http://www.w3.org/2000/svg" xmlns:xlink="http://www.w3.org/1999/xlink" x="0px" y="0px"
	 width="841.89px" height="595.28px" viewBox="0 0 841.89 595.28" enable-background="new 0 0 841.89 595.28" xml:space="preserve">
<g>
	<g>
		<path fill="#00205B" d="M405.595,283.949c0-13.482-8.845-23.729-27.073-23.729H341.85v70.863h17.258v-55.548h19.522
			c7.227,0,9.814,4.1,9.814,8.845c0,4.854-2.696,8.845-9.923,8.845h-16.718l23.729,37.858h19.631c0,0-16.18-25.455-16.071-25.455
			C399.124,303.256,405.595,296.245,405.595,283.949"/>
		<rect x="312.944" y="260.22" fill="#00205B" width="17.258" height="70.864"/>
		<polygon fill="#00205B" points="257.829,260.22 221.696,331.083 241.11,331.083 246.963,319.219 276.056,319.219 268.83,304.334 
			254.307,304.334 265.054,282.547 265.271,282.547 289.431,331.083 309.277,331.083 273.144,260.22 		"/>
		<path fill="#00205B" d="M468.588,294.304c5.502-3.021,8.414-7.874,8.414-14.993c0-11.433-8.521-19.091-22.866-19.091h-40.342
			v70.863h41.96c14.668,0,24.268-7.874,24.268-19.846C480.021,302.933,475.384,296.677,468.588,294.304 M431.054,275.212h23.082
			c3.452,0,6.148,2.696,6.148,6.256s-2.696,6.256-6.257,6.256h-22.974V275.212z M454.566,316.198h-23.513v-14.453h23.513
			c4.207,0,7.443,3.021,7.443,7.119C462.01,313.07,458.773,316.198,454.566,316.198"/>
		<path fill="#00205B" d="M534.49,299.804c0,10.756-4.962,16.718-14.776,16.718c-9.707,0-14.669-5.962-14.669-16.718V260.22h-17.688
			v38.29c0,21.896,11.541,34.084,32.357,34.084s32.465-12.188,32.465-34.084v-38.29H534.49V299.804z"/>
		<path fill="#00205B" d="M598.234,288.371c-16.383-3.989-19.953-4.37-19.953-9.061c0-3.629,4.098-5.393,11.001-5.393
			c9.168,0,18.931,2.3,24.484,5.717l5.501-14.453c-7.118-3.775-17.581-6.472-29.769-6.472c-18.229,0-28.476,9.061-28.476,21.248
			c0,13.114,7.654,18.442,25.239,22.219c13.69,3.018,16.609,4.901,16.609,8.736c0,4.166-3.774,6.041-11.216,6.041
			c-10.786,0-20.548-2.62-28.367-6.903l-5.285,15.1c8.521,4.53,21.248,7.443,34.083,7.443c17.905,0,28.582-8.306,28.582-22.22
			C620.669,299.21,613.447,292.039,598.234,288.371"/>
	</g>
</g>
</svg>
