<svg width="420" height="100" xmlns="http://www.w3.org/2000/svg">

 <g>
  <title>Layer 1</title>
  <g id="svg_1">
   <g id="svg_2">
    <path id="svg_3" d="m192.595,36.949c0,-13.482 -8.845,-23.729 -27.073,-23.729l-36.672,0l0,70.863l17.258,0l0,-55.548l19.522,0c7.227,0 9.814,4.1 9.814,8.845c0,4.854 -2.696,8.845 -9.923,8.845l-16.718,0l23.729,37.858l19.631,0c0,0 -16.18,-25.455 -16.071,-25.455c10.032,-2.372 16.503,-9.383 16.503,-21.679" fill="#FFFFFF"/>
    <rect id="svg_4" height="70.864" width="17.258" fill="#FFFFFF" y="13.22" x="99.944"/>
    <polygon id="svg_5" points="44.829010009765625,13.220001220703125 8.695999145507812,84.0830078125 28.110000610351562,84.0830078125 33.96299743652344,72.218994140625 63.055999755859375,72.218994140625 55.829986572265625,57.334014892578125 41.3070068359375,57.334014892578125 52.053985595703125,35.5469970703125 52.27099609375,35.5469970703125 76.43099975585938,84.0830078125 96.27700805664062,84.0830078125 60.144012451171875,13.220001220703125 " fill="#FFFFFF"/>
    <path id="svg_6" d="m255.588,47.304c5.502,-3.021 8.414,-7.874 8.414,-14.993c0,-11.433 -8.521,-19.091 -22.866,-19.091l-40.342,0l0,70.863l41.96,0c14.668,0 24.268,-7.874 24.268,-19.846c-0.001,-8.304 -4.638,-14.56 -11.434,-16.933m-37.534,-19.092l23.082,0c3.452,0 6.148,2.696 6.148,6.256s-2.696,6.256 -6.257,6.256l-22.974,0l0,-12.512l0.001,0zm23.512,40.986l-23.513,0l0,-14.453l23.513,0c4.207,0 7.443,3.021 7.443,7.119c0.001,4.206 -3.236,7.334 -7.443,7.334" fill="#FFFFFF"/>
    <path id="svg_7" d="m321.49,52.804c0,10.756 -4.962,16.718 -14.776,16.718c-9.707,0 -14.669,-5.962 -14.669,-16.718l0,-39.584l-17.688,0l0,38.29c0,21.896 11.541,34.084 32.357,34.084s32.465,-12.188 32.465,-34.084l0,-38.29l-17.689,0l0,39.584z" fill="#FFFFFF"/>
    <path id="svg_8" d="m385.234,41.371c-16.383,-3.989 -19.953,-4.37 -19.953,-9.061c0,-3.629 4.098,-5.393 11.001,-5.393c9.168,0 18.931,2.3 24.484,5.717l5.501,-14.453c-7.118,-3.775 -17.581,-6.472 -29.769,-6.472c-18.229,0 -28.476,9.061 -28.476,21.248c0,13.114 7.654,18.442 25.239,22.219c13.69,3.018 16.609,4.901 16.609,8.736c0,4.166 -3.774,6.041 -11.216,6.041c-10.786,0 -20.548,-2.62 -28.367,-6.903l-5.285,15.1c8.521,4.53 21.248,7.443 34.083,7.443c17.905,0 28.582,-8.306 28.582,-22.22c0.002,-11.163 -7.22,-18.334 -22.433,-22.002" fill="#FFFFFF"/>
   </g>
  </g>
 </g>
</svg>